<svg width="50" height="49" viewBox="0 0 50 49" fill="none" xmlns="http://www.w3.org/2000/svg">
<g filter="url(#filter0_d_394_161)">
<rect x="13" y="11" width="24" height="24" rx="12" fill="url(#paint0_linear_394_161)"/>
<rect x="12.5" y="10.5" width="25" height="25" rx="12.5" stroke="white"/>
<path d="M20.9047 24.5483C20.3955 24.5483 19.8864 24.5483 19.3775 24.5483C19.245 24.5483 19.1045 24.5669 19.0338 24.4122C18.9591 24.2484 19.0169 24.1142 19.1235 23.986C19.541 23.4842 19.9571 22.981 20.372 22.4772C22.5594 19.8198 24.7461 17.162 26.9336 14.5043C27.0355 14.3804 27.1395 14.2582 27.2428 14.1353C27.3205 14.0433 27.4035 13.9526 27.5371 14.028C27.6626 14.0988 27.7088 14.216 27.6706 14.3535C27.5849 14.6624 27.4936 14.9696 27.4012 15.2765C26.8004 17.2786 26.1989 19.28 25.5977 21.2821C25.2875 22.3147 24.977 23.347 24.6708 24.3809C24.6375 24.4932 24.59 24.5483 24.4662 24.5756C24.1652 24.6417 23.961 24.8453 23.8344 25.118C23.6179 25.5849 23.6425 26.0466 23.9281 26.4767C24.3273 27.0782 25.1464 27.0071 25.4765 26.3412C25.7077 25.8749 25.6831 25.4099 25.3991 24.9692C25.3437 24.8831 25.3237 24.8117 25.3549 24.7094C25.6698 23.6725 25.982 22.6346 26.2872 21.5947C26.3238 21.4705 26.3875 21.4472 26.5008 21.4475C27.541 21.4505 28.5816 21.4495 29.6219 21.4489C29.7627 21.4489 29.9048 21.4422 29.9726 21.6043C30.0367 21.7574 29.9809 21.88 29.8823 21.9992C28.8121 23.2969 27.744 24.5965 26.6748 25.8951C25.057 27.8604 23.4389 29.8253 21.821 31.7905C21.7998 31.8161 21.7795 31.8427 21.7569 31.8669C21.6772 31.9529 21.5979 32.0555 21.463 31.9755C21.3341 31.8988 21.2916 31.7772 21.3331 31.6327C21.4404 31.2611 21.5484 30.8894 21.6593 30.5188C22.5494 27.5528 23.4409 24.5875 24.3283 21.6209C24.3625 21.5067 24.409 21.4539 24.5323 21.4263C24.7794 21.3712 24.9634 21.2134 25.1009 20.9995C25.4018 20.5312 25.3652 19.8646 25.0119 19.4474C24.6096 18.9725 23.9467 19.0104 23.599 19.5278C23.2967 19.9779 23.2937 20.574 23.6 21.0291C23.6617 21.1211 23.6734 21.2001 23.6411 21.3057C23.3296 22.332 23.0204 23.3593 22.7175 24.3886C22.6809 24.5121 22.6258 24.5527 22.4986 24.551C21.9675 24.5444 21.4361 24.5483 20.905 24.5483H20.9047Z" fill="white"/>
<path d="M24.7265 20.2947C24.7205 20.3973 24.6956 20.5043 24.6275 20.5963C24.5807 20.6594 24.5219 20.7062 24.4445 20.7318C24.2509 20.7956 24.0652 20.6903 23.9835 20.4657C23.8935 20.219 23.9985 19.9307 24.2107 19.8417C24.4037 19.7606 24.5837 19.8453 24.677 20.0599C24.7086 20.132 24.7265 20.2064 24.7265 20.2947Z" fill="white"/>
<path d="M25.0503 25.7188C25.0503 25.8443 25.0134 25.9586 24.9327 26.0549C24.771 26.2482 24.5139 26.2366 24.3718 26.0283C24.2575 25.8609 24.2432 25.6796 24.3243 25.4946C24.3884 25.3478 24.499 25.2491 24.664 25.2461C24.8245 25.2435 24.9251 25.3461 24.9968 25.4796C25.0367 25.554 25.0503 25.6351 25.0503 25.7188Z" fill="white"/>
</g>
<defs>
<filter id="filter0_d_394_161" x="0.571428" y="-2.38419e-07" width="48.8571" height="48.8571" filterUnits="userSpaceOnUse" color-interpolation-filters="sRGB">
<feFlood flood-opacity="0" result="BackgroundImageFix"/>
<feColorMatrix in="SourceAlpha" type="matrix" values="0 0 0 0 0 0 0 0 0 0 0 0 0 0 0 0 0 0 127 0" result="hardAlpha"/>
<feOffset dy="1.42857"/>
<feGaussianBlur stdDeviation="5.71429"/>
<feComposite in2="hardAlpha" operator="out"/>
<feColorMatrix type="matrix" values="0 0 0 0 0 0 0 0 0 0 0 0 0 0 0 0 0 0 0.1 0"/>
<feBlend mode="normal" in2="BackgroundImageFix" result="effect1_dropShadow_394_161"/>
<feBlend mode="normal" in="SourceGraphic" in2="effect1_dropShadow_394_161" result="shape"/>
</filter>
<linearGradient id="paint0_linear_394_161" x1="34" y1="11.1714" x2="18.4" y2="32.7714" gradientUnits="userSpaceOnUse">
<stop offset="0.140783" stop-color="#B7FCEB"/>
<stop offset="0.482458" stop-color="#B0C7EE"/>
<stop offset="1" stop-color="#9A22F9"/>
</linearGradient>
</defs>
</svg>
